#N canvas 439 254 529 501 10;
#X obj 268 187 loadbang;
#X obj 268 231 netsend;
#X obj 18 416 spigot 0;
#X obj 18 437 list prepend send;
#X obj 18 458 list trim;
#X obj 268 282 &&;
#X obj 268 257 t b f;
#X obj 15 31 t a a;
#X obj 47 52 list prepend set;
#X obj 47 73 list trim;
#X msg 47 94 test message 1 2 3;
#X obj 268 302 t f f;
#X obj 15 152 outlet;
#X obj 18 393 inlet;
#X obj 267 344 outlet;
#X obj 15 11 netreceive 3000;
#X msg 268 209 connect 127.0.0.1 3010;
#X connect 0 0 16 0;
#X connect 1 0 6 0;
#X connect 2 0 3 0;
#X connect 3 0 4 0;
#X connect 4 0 1 0;
#X connect 5 0 11 0;
#X connect 6 0 5 0;
#X connect 6 1 5 1;
#X connect 7 0 12 0;
#X connect 7 1 8 0;
#X connect 8 0 9 0;
#X connect 9 0 10 0;
#X connect 11 0 14 0;
#X connect 11 1 2 1;
#X connect 13 0 2 0;
#X connect 15 0 7 0;
#X connect 15 1 5 0;
#X connect 16 0 1 0;
