#N canvas 1 524 920 475 10;
#X obj 119 158 print;
#N canvas 509 593 512 260 communication 0;
#X obj 16 55 inlet;
#X obj 15 225 outlet;
#X floatatom 102 182 5 0 0 0 - - -;
#X obj 167 154 netsend;
#X obj 167 53 loadbang;
#X obj 15 156 netreceive 3010;
#X msg 167 103 connect 127.0.0.1 3000;
#X floatatom 167 182 5 0 0 0 - - -;
#X text 224 79 Delay needed to connect to python socket;
#X obj 167 78 del 20;
#X obj 102 224 outlet;
#X obj 167 224 outlet;
#X text 14 10 Pure Data communication with Flask Web server and sqlite
dB;
#X connect 0 0 3 0;
#X connect 2 0 10 0;
#X connect 3 0 7 0;
#X connect 4 0 9 0;
#X connect 5 0 1 0;
#X connect 5 1 2 0;
#X connect 6 0 3 0;
#X connect 7 0 11 0;
#X connect 9 0 6 0;
#X restore 443 87 pd communication;
#X msg 108 60 send are you talking to me;
#X floatatom 489 109 5 0 0 3 NETRECEIVE - -;
#X floatatom 560 109 5 0 0 3 NETSEND - -;
#X text 105 38 Send messages to python server;
#X text 442 40 Communication;
#X obj 108 136 receive MsgFromPython;
#X obj 108 85 send MsgToPython;
#X obj 443 62 receive MsgToPython;
#X obj 443 143 send MsgFromPython;
#X text 106 118 Receive messages from python server;
#N canvas 540 285 633 594 processSounds 1;
#X obj 28 26 inlet;
#X obj 332 177 outlet~;
#N canvas 0 0 450 300 (subpatch) 0;
#X array array1 253440 float 2;
#X coords 0 1 253440 -1 200 140 1;
#X restore 30 308 graph;
#X obj 28 57 soundfiler;
#X obj 333 28 inlet;
#X obj 332 112 tabread~ array1;
#X obj 333 84 line~;
#X msg 333 57 0 \, 260000 5892;
#X text 143 45 Example message load;
#N canvas 0 0 450 300 (subpatch) 0;
#X array array2 260000 float 2;
#X coords 0 1 260000 -1 200 140 1;
#X restore 295 306 graph;
#X obj 449 27 inlet;
#X obj 449 83 line~;
#X msg 449 55 0 \, 260000 5892;
#X obj 448 111 tabread~ array2;
#X floatatom 37 79 10 0 0 0 - - -;
#X msg 84 27 read -resize sounds/motorr.wav array1;
#X floatatom 37 134 5 0 0 0 - - -;
#X obj 28 112 expr $f1 / 44100;
#X obj 37 156 * 1000;
#X floatatom 37 180 5 0 0 0 - - -;
#X obj 29 258 print pack:;
#X obj 29 234 pack symbol n n;
#X connect 0 0 3 0;
#X connect 3 0 14 0;
#X connect 3 0 17 0;
#X connect 4 0 7 0;
#X connect 5 0 1 0;
#X connect 6 0 5 0;
#X connect 7 0 6 0;
#X connect 10 0 12 0;
#X connect 11 0 13 0;
#X connect 12 0 11 0;
#X connect 13 0 1 0;
#X connect 15 0 3 0;
#X connect 16 0 18 0;
#X connect 17 0 16 0;
#X connect 18 0 19 0;
#X connect 21 0 20 0;
#X restore 190 355 pd processSounds;
#X msg 446 270 \; pd dsp \$1 \;;
#X obj 446 208 r audio_on;
#X obj 524 208 r audio_off;
#X msg 446 239 1;
#X msg 524 238 0;
#X text 443 169 Turn ON / OFF DSP from python using dspOn and dspOff
commands;
#X obj 33 356 s audio_on;
#X obj 108 356 s audio_off;
#X obj 191 389 *~ 0.8;
#X obj 192 426 dac~;
#X msg 127 204 load read sounds/motorr.wav array1;
#X msg 128 183 load read sounds/moga.wav array2;
#X obj 108 261 route dspOn dspOff load play1 play2;
#X msg 134 226 play1;
#X msg 180 226 play2;
#X obj 283 332 del 1830;
#X obj 236 332 del 10;
#X obj 33 335 del 10;
#X obj 108 334 del 10;
#X obj 351 355 route exit;
#X obj 408 380 print msg:;
#X msg 357 332 exit;
#X msg 351 408 \; pd quit \;;
#X obj 357 308 del 10000;
#X connect 1 0 10 0;
#X connect 1 1 3 0;
#X connect 1 2 4 0;
#X connect 2 0 8 0;
#X connect 7 0 0 0;
#X connect 7 0 25 0;
#X connect 9 0 1 0;
#X connect 12 0 21 0;
#X connect 14 0 16 0;
#X connect 15 0 17 0;
#X connect 16 0 13 0;
#X connect 17 0 13 0;
#X connect 21 0 22 0;
#X connect 21 0 22 1;
#X connect 23 0 25 0;
#X connect 24 0 25 0;
#X connect 25 0 30 0;
#X connect 25 1 31 0;
#X connect 25 2 12 0;
#X connect 25 3 29 0;
#X connect 25 4 28 0;
#X connect 25 5 32 0;
#X connect 26 0 25 0;
#X connect 27 0 25 0;
#X connect 28 0 12 2;
#X connect 28 0 36 0;
#X connect 29 0 12 1;
#X connect 30 0 19 0;
#X connect 31 0 20 0;
#X connect 32 0 35 0;
#X connect 32 1 33 0;
#X connect 34 0 32 0;
#X connect 36 0 34 0;
#X coords 0 475 1 474 85 60 0;
