#N canvas 233 166 953 556 10;
#X obj 116 95 print;
#N canvas 32 443 512 260 communication 0;
#X obj 16 55 inlet;
#X obj 15 225 outlet;
#X floatatom 102 182 5 0 0 0 - - -;
#X obj 167 154 netsend;
#X obj 167 53 loadbang;
#X obj 15 156 netreceive 3010;
#X msg 167 103 connect 127.0.0.1 3000;
#X floatatom 167 182 5 0 0 0 - - -;
#X text 224 79 Delay needed to connect to python socket;
#X obj 167 78 del 20;
#X obj 102 224 outlet;
#X obj 167 224 outlet;
#X text 14 10 Pure Data communication with Flask Web server and sqlite
dB;
#X connect 0 0 3 0;
#X connect 2 0 10 0;
#X connect 3 0 7 0;
#X connect 4 0 9 0;
#X connect 5 0 1 0;
#X connect 5 1 2 0;
#X connect 6 0 3 0;
#X connect 7 0 11 0;
#X connect 9 0 6 0;
#X restore 547 284 pd communication;
#X msg 546 393 send are you talking to me;
#X floatatom 593 306 5 0 0 3 NETRECEIVE - -;
#X floatatom 664 306 5 0 0 3 NETSEND - -;
#X text 543 371 Send messages to python server;
#X text 546 237 Communication;
#X obj 105 73 receive MsgFromPython;
#X obj 546 418 send MsgToPython;
#X obj 547 259 receive MsgToPython;
#X obj 547 340 send MsgFromPython;
#X text 103 55 Receive messages from python server;
#N canvas 540 129 1010 765 processSounds 0;
#X obj 64 65 inlet;
#N canvas 0 0 450 300 (subpatch) 0;
#X array array1 253440 float 2;
#X coords 0 1 253440 -1 200 140 1;
#X restore 66 585 graph;
#X obj 64 95 soundfiler;
#X obj 506 64 inlet;
#X text 115 46 Example message load;
#N canvas 0 0 450 300 (subpatch) 0;
#X array array2 2.0336e+06 float 2;
#X coords 0 1 2.0336e+06 -1 200 140 1;
#X restore 286 585 graph;
#X floatatom 64 133 10 0 0 0 - - -;
#X floatatom 98 226 10 0 0 0 - - -;
#X obj 98 183 expr $f1 / 44.1;
#X text 97 162 calculate time to play from samples in ms;
#X text 76 114 number of samples in file;
#X text 106 207 time to play in ms;
#X text 213 294 pack to message;
#X msg 64 322 0 \, \$1 \$2;
#X obj 65 503 outlet~;
#X obj 64 344 line~;
#X obj 64 460 *~;
#X obj 174 366 s array1;
#X msg 174 344 normalize 1;
#X msg 174 322 \$3;
#X text 203 322 normalize amplitude;
#X obj 380 284 -;
#X floatatom 380 312 10 0 0 0 - - -;
#X obj 353 345 delay;
#X obj 63 366 tabread4~ array1;
#X msg 115 66 read -resize sounds/motorr.wav array1;
#X text 31 457 Gain;
#X obj 435 378 print;
#X obj 344 310 bng 15 250 50 0 empty empty empty 17 7 0 10 -262144
-1 -1;
#X msg 344 288 \$1;
#X obj 506 124 soundfiler;
#X floatatom 506 162 10 0 0 0 - - -;
#X floatatom 540 255 10 0 0 0 - - -;
#X obj 540 212 expr $f1 / 44.1;
#X text 539 191 calculate time to play from samples in ms;
#X text 518 143 number of samples in file;
#X text 548 236 time to play in ms;
#X msg 563 92 read -resize sounds/moga.wav array2;
#X text 655 366 pack to message;
#X msg 506 394 0 \, \$1 \$2;
#X obj 506 416 line~;
#X obj 506 485 *~;
#X msg 616 416 normalize 1;
#X msg 616 394 \$3;
#X text 645 394 normalize amplitude;
#X text 472 482 Gain;
#X obj 505 438 tabread4~ array2;
#X obj 616 438 s array2;
#X obj 64 295 pack float float symbol;
#X obj 199 269 bng 15 250 50 0 empty empty empty 17 7 0 10 -262144
-1 -1;
#X obj 506 367 pack float float symbol;
#X obj 641 345 bng 15 250 50 0 empty empty empty 17 7 0 10 -262144
-1 -1;
#X obj 563 64 r tst;
#X obj 157 535 outlet;
#X obj 157 512 r playNext;
#X obj 353 378 s playNext;
#X obj 808 306 -;
#X floatatom 808 334 10 0 0 0 - - -;
#X obj 781 367 delay;
#X obj 863 400 print;
#X obj 772 332 bng 15 250 50 0 empty empty empty 17 7 0 10 -262144
-1 -1;
#X msg 772 310 \$1;
#X obj 781 400 s playNext;
#X obj 395 67 loadbang;
#X obj 395 93 s bang;
#X obj 395 230 r bang;
#X obj 823 255 r bang;
#X obj 395 256 float 600;
#N canvas 503 604 450 300 fadeout 0;
#X obj 68 47 inlet;
#X obj 68 123 outlet;
#X obj 68 96 line;
#X msg 68 73 1 \, 0 600;
#X connect 0 0 3 0;
#X connect 2 0 1 0;
#X connect 3 0 2 0;
#X restore 185 443 pd fadeout;
#N canvas 501 609 450 300 fadein 0;
#X obj 68 47 inlet;
#X obj 68 123 outlet;
#X obj 68 96 line;
#X msg 68 73 0 \, 1 400;
#X connect 0 0 3 0;
#X connect 2 0 1 0;
#X connect 3 0 2 0;
#X restore 186 416 pd fadein;
#N canvas 499 614 450 300 fadeout 0;
#X obj 68 47 inlet;
#X obj 68 123 outlet;
#X obj 68 96 line;
#X msg 68 73 1 \, 0 600;
#X connect 0 0 3 0;
#X connect 2 0 1 0;
#X connect 3 0 2 0;
#X restore 711 468 pd fadeout;
#N canvas 501 609 450 300 fadein 0;
#X obj 68 47 inlet;
#X obj 68 123 outlet;
#X obj 68 96 line;
#X msg 68 73 0 \, 1 400;
#X connect 0 0 3 0;
#X connect 2 0 1 0;
#X connect 3 0 2 0;
#X restore 711 438 pd fadein;
#X obj 823 281 float 600;
#X connect 0 0 2 0;
#X connect 2 0 6 0;
#X connect 3 0 30 0;
#X connect 6 0 8 0;
#X connect 6 0 48 0;
#X connect 7 0 21 0;
#X connect 7 0 29 0;
#X connect 7 0 48 1;
#X connect 8 0 7 0;
#X connect 13 0 15 0;
#X connect 15 0 24 0;
#X connect 16 0 14 0;
#X connect 18 0 17 0;
#X connect 19 0 18 0;
#X connect 21 0 22 0;
#X connect 22 0 23 1;
#X connect 23 0 27 0;
#X connect 23 0 55 0;
#X connect 23 0 68 0;
#X connect 24 0 16 0;
#X connect 28 0 23 0;
#X connect 28 0 69 0;
#X connect 29 0 28 0;
#X connect 30 0 31 0;
#X connect 31 0 33 0;
#X connect 31 0 50 0;
#X connect 32 0 50 1;
#X connect 32 0 56 0;
#X connect 32 0 61 0;
#X connect 33 0 32 0;
#X connect 39 0 40 0;
#X connect 40 0 46 0;
#X connect 41 0 14 0;
#X connect 42 0 47 0;
#X connect 43 0 42 0;
#X connect 46 0 41 0;
#X connect 48 0 13 0;
#X connect 48 0 19 0;
#X connect 49 0 48 2;
#X connect 50 0 39 0;
#X connect 50 0 43 0;
#X connect 51 0 50 2;
#X connect 54 0 53 0;
#X connect 56 0 57 0;
#X connect 57 0 58 1;
#X connect 58 0 59 0;
#X connect 58 0 62 0;
#X connect 58 0 70 0;
#X connect 60 0 58 0;
#X connect 60 0 71 0;
#X connect 61 0 60 0;
#X connect 63 0 64 0;
#X connect 65 0 67 0;
#X connect 66 0 72 0;
#X connect 67 0 21 1;
#X connect 68 0 16 1;
#X connect 69 0 16 1;
#X connect 70 0 41 1;
#X connect 71 0 41 1;
#X connect 72 0 56 1;
#X restore 187 292 pd processSounds;
#X msg 545 163 \; pd dsp \$1 \;;
#X obj 545 101 r audio_on;
#X obj 623 101 r audio_off;
#X msg 545 132 1;
#X msg 623 131 0;
#X text 542 62 Turn ON / OFF DSP from python using dspOn and dspOff
commands;
#X obj 30 293 s audio_on;
#X obj 105 293 s audio_off;
#X obj 188 326 *~ 0.8;
#X obj 189 363 dac~;
#X obj 30 272 del 10;
#X obj 105 271 del 10;
#X obj 379 316 route exit;
#X obj 436 341 print msg:;
#X msg 379 293 exit;
#X msg 379 369 \; pd quit \;;
#X obj 105 198 route dspOn dspOff load1 load2 exit;
#X obj 379 269 del 10;
#X obj 280 394 s MsgToPython;
#X msg 280 369 send play-\$1;
#X obj 239 394 print;
#X obj 280 342 +;
#X obj 311 342 float 0;
#X msg 280 319 1;
#X obj 379 240 s audio_off;
#X obj 118 171 websocket;
#X msg 258 123 read sounds/motorr.wav array2;
#X msg 259 100 read sounds/moga.wav array1;
#X obj 280 423 s playNext;
#X obj 118 123 r playNext;
#X text 352 423 Send message to website;
#X text 180 171 Receive message from website;
#X connect 1 0 10 0;
#X connect 1 1 3 0;
#X connect 1 2 4 0;
#X connect 2 0 8 0;
#X connect 7 0 0 0;
#X connect 7 0 29 0;
#X connect 9 0 1 0;
#X connect 12 0 21 0;
#X connect 12 1 36 0;
#X connect 14 0 16 0;
#X connect 15 0 17 0;
#X connect 16 0 13 0;
#X connect 17 0 13 0;
#X connect 21 0 22 0;
#X connect 21 0 22 1;
#X connect 23 0 19 0;
#X connect 24 0 20 0;
#X connect 25 0 28 0;
#X connect 25 1 26 0;
#X connect 27 0 25 0;
#X connect 29 0 23 0;
#X connect 29 1 24 0;
#X connect 29 2 12 0;
#X connect 29 3 12 1;
#X connect 29 4 30 0;
#X connect 29 4 37 0;
#X connect 29 5 30 0;
#X connect 29 5 37 0;
#X connect 30 0 27 0;
#X connect 32 0 31 0;
#X connect 32 0 33 0;
#X connect 32 0 41 0;
#X connect 34 0 35 0;
#X connect 34 0 32 0;
#X connect 35 0 34 1;
#X connect 36 0 34 0;
#X connect 38 0 29 0;
#X connect 39 0 38 0;
#X connect 40 0 38 0;
#X connect 42 0 38 0;
#X coords 0 556 1 555 85 60 0;
