#N canvas 148 418 703 397 10;
#X obj 49 218 netsend;
#X msg 49 93 connect localhost 2000;
#X obj 239 294 netreceive 2010;
#X obj 339 314 print got-on-2010;
#X obj 239 318 print pyMsg;
#X floatatom 49 249 5 0 0 0 - - -;
#X msg 58 169 send Exit \, disconnect;
#X text 254 31 1 open a new shell in the same directory;
#X text 275 45 and type:;
#X text 276 60 python -i ENTRY.py;
#X text 233 93 <- 2 click here (open connection);
#X text 233 120 <- 3 send a message;
#X msg 98 144 send test \$1;
#X floatatom 98 123 5 0 0 0 - - -;
#X obj 24 279 sel 1;
#X obj 24 334 print connection;
#X msg 54 307 closed;
#X msg 24 307 open;
#X text 234 167 <- 4 close connection (don't forget);
#X text 277 186 and close python (ctrl+d).;
#X text 276 204 To restart invoke python again.;
#X connect 0 0 5 0;
#X connect 0 0 14 0;
#X connect 1 0 0 0;
#X connect 2 0 4 0;
#X connect 2 1 3 0;
#X connect 6 0 0 0;
#X connect 12 0 0 0;
#X connect 13 0 12 0;
#X connect 14 0 17 0;
#X connect 14 1 16 0;
#X connect 16 0 15 0;
#X connect 17 0 15 0;
