#N canvas 473 22 824 641 10;
#X obj 278 120 gemhead 20;
#X obj 46 160 pix_image;
#X obj 277 184 pix_texture;
#X obj 46 185 pix_texture;
#X obj 46 119 gemhead 10;
#X obj 30 58 gemwin 1;
#X msg 33 24 create \, 1;
#X obj 356 56 openpanel;
#X msg 355 79 open \$1;
#X obj 357 33 bng 15 250 50 0 empty empty empty 17 7 0 10 -262144 -1
-1;
#X obj 278 157 pix_image;
#X obj 54 455 pix_texture;
#X obj 133 327 openpanel;
#X msg 132 350 open \$1;
#X obj 134 304 bng 15 250 50 0 empty empty empty 17 7 0 10 -262144
-1 -1;
#X obj 55 428 pix_image;
#X obj 275 459 pix_texture;
#X obj 354 331 openpanel;
#X msg 353 354 open \$1;
#X obj 355 308 bng 15 250 50 0 empty empty empty 17 7 0 10 -262144
-1 -1;
#X obj 276 432 pix_image;
#X obj 130 57 openpanel;
#X msg 129 80 open \$1;
#X obj 131 34 bng 15 250 50 0 empty empty empty 17 7 0 10 -262144 -1
-1;
#X obj 45 250 rectangle;
#X obj 276 247 rectangle;
#X obj 274 522 rectangle;
#X obj 53 518 rectangle;
#X obj 432 261 bng 15 250 50 0 empty empty empty 17 7 0 10 -262144
-1 -1;
#X obj 432 295 metro 300;
#X obj 55 391 gemhead 30;
#X obj 276 395 gemhead 40;
#X obj 273 492 translate 1 1 1 1;
#X obj 52 488 translate 1 1 1 1;
#X obj 275 217 translate 1 1 1 1;
#X obj 46 216 translate 1 1 1 1;
#X msg 145 181 -1 1 0;
#X msg 375 181 -1 -1 0;
#X msg 151 453 1 1 0;
#X msg 478 398 e1;
#X msg 513 475 1 -1 0;
#X msg 504 448 1 1 0;
#X msg 491 422 -1 -1 0;
#X msg 478 398 -1 1 0;
#X obj 437 360 select 0 1 2;
#X obj 432 325 random 4;
#X connect 0 0 10 0;
#X connect 1 0 3 0;
#X connect 2 0 34 0;
#X connect 3 0 35 0;
#X connect 4 0 1 0;
#X connect 6 0 5 0;
#X connect 7 0 8 0;
#X connect 8 0 10 0;
#X connect 9 0 7 0;
#X connect 10 0 2 0;
#X connect 11 0 33 0;
#X connect 12 0 13 0;
#X connect 13 0 15 0;
#X connect 14 0 12 0;
#X connect 15 0 11 0;
#X connect 16 0 32 0;
#X connect 17 0 18 0;
#X connect 18 0 20 0;
#X connect 19 0 17 0;
#X connect 20 0 16 0;
#X connect 21 0 22 0;
#X connect 22 0 1 0;
#X connect 23 0 21 0;
#X connect 28 0 29 0;
#X connect 29 0 45 0;
#X connect 30 0 15 0;
#X connect 31 0 20 0;
#X connect 32 0 26 0;
#X connect 33 0 27 0;
#X connect 34 0 25 0;
#X connect 35 0 24 0;
#X connect 36 0 35 2;
#X connect 37 0 34 2;
#X connect 38 0 33 2;
#X connect 39 0 42 0;
#X connect 40 0 32 2;
#X connect 41 0 40 0;
#X connect 42 0 41 0;
#X connect 44 0 39 0;
#X connect 44 1 42 0;
#X connect 44 2 41 0;
#X connect 44 3 40 0;
#X connect 45 0 44 0;
