#N canvas 681 312 450 300 10;
#X obj 109 243 print;
#X obj 70 131 makefilename %s.wav;
#X obj 70 98 symbol;
#X obj 70 197 readsf~;
#X obj 71 243 dac~;
#X obj -34 6 bng 15 250 50 0 empty empty empty 17 7 0 10 -262144 -1
-1;
#X msg -34 141 start;
#X obj -34 117 delay 1;
#X msg 70 161 open \$1;
#X obj 134 199 print;
#X msg 70 67 ./wav/motorr;
#X connect 1 0 8 0;
#X connect 2 0 1 0;
#X connect 3 0 4 0;
#X connect 3 0 4 1;
#X connect 3 1 0 0;
#X connect 5 0 7 0;
#X connect 5 0 10 0;
#X connect 6 0 3 0;
#X connect 7 0 6 0;
#X connect 8 0 3 0;
#X connect 8 0 9 0;
#X connect 10 0 2 0;
