#N canvas 1 111 948 503 10;
#X obj 267 87 netreceive 3000;
#X msg 36 126 \; pd dsp \$1 \;;
#X text 266 48 Receive message from Python and route them to the proper
receive objects in the patch ....;
#X obj 267 222 s audio_on;
#X obj 347 222 s audio_off;
#X obj 267 179 route dspOn dspOff;
#X msg 279 124 dspOn;
#X msg 327 124 dspOff;
#X obj 36 64 r audio_on;
#X obj 114 64 r audio_off;
#X obj 441 224 s play;
#X msg 384 124 play;
#X obj 37 202 r play;
#X obj 266 372 netsend 3001;
#X msg 266 300 connect localhost 3001;
#X msg 279 335 disconnect;
#X msg 36 95 1;
#X msg 114 94 0;
#X text 264 258 Transmit TCP packages on port 3001 and listen with
pdreceive command ....;
#X obj 266 401 print Message Send;
#X text 33 25 Turn ON / OFF DSP from python using dspOn and dspOff
commands;
#X obj 223 125 print;
#X obj 37 266 *~ 0.5;
#X obj 38 310 dac~;
#N canvas 1 673 805 278 play2seconds 0;
#X obj 37 69 inlet;
#X obj 38 238 outlet~;
#N canvas 0 0 450 300 (subpatch) 0;
#X array array1 260000 float 0;
#X coords 0 1 259999 -1 200 140 1;
#X restore 323 90 graph;
#X obj 37 116 line~;
#X text 33 7 Read wav file into array using:;
#X text 65 21 read wav/motorr.wav array;
#X text 229 34 260000 / 44100 = 5896 ms;
#X text 65 33 0 \, 260000 5896;
#X obj 92 116 soundfiler array1;
#X obj 38 182 tabread~ array1;
#X connect 0 0 3 0;
#X connect 0 0 8 0;
#X connect 3 0 9 0;
#X connect 9 0 1 0;
#X restore 37 233 pd play2seconds;
#X msg 436 153 0 \, 260000 5896;
#X msg 434 125 read wav/motorr.wav array1;
#X connect 0 0 5 0;
#X connect 0 0 21 0;
#X connect 5 0 3 0;
#X connect 5 1 4 0;
#X connect 5 2 10 0;
#X connect 6 0 5 0;
#X connect 7 0 5 0;
#X connect 8 0 16 0;
#X connect 9 0 17 0;
#X connect 11 0 5 0;
#X connect 12 0 24 0;
#X connect 13 0 19 0;
#X connect 14 0 13 0;
#X connect 15 0 13 0;
#X connect 16 0 1 0;
#X connect 17 0 1 0;
#X connect 22 0 23 0;
#X connect 22 0 23 1;
#X connect 24 0 22 0;
#X connect 25 0 5 0;
#X connect 26 0 5 0;
