#N canvas 0 96 1366 639 10;
#X obj 501 269 netreceive 3000;
#X obj 501 323 route 0 1;
#X obj 504 73 r audio_on_off;
#X obj 504 107 tgl 15 0 empty empty empty 17 7 0 10 -262144 -1 -1 1
1;
#X msg 504 135 \; pd dsp \$1 \;;
#X obj 102 404 dac~;
#X text 499 198 Receive message from Python and route them to the proper
receive objects in the patch ....;
#X floatatom 616 312 5 0 0 0 - - -;
#X obj 101 343 readsf~;
#X msg 171 241 start;
#X msg 172 288 stop;
#X msg 51 97 open ./wav/moga.wav;
#X msg 86 154 open ./wav/motorr.wav;
#X msg 125 193 open ./wav/thegridge.wav;
#X obj 263 42 bng 15 250 50 0 empty empty empty 17 7 0 10 -262144 -1
-1;
#X obj 199 36 bng 15 250 50 0 empty empty empty 17 7 0 10 -262144 -1
-1;
#X obj 339 47 bng 15 250 50 0 empty empty empty 17 7 0 10 -262144 -1
-1;
#X obj 499 371 s audio_on_off;
#X connect 0 0 1 0;
#X connect 0 1 7 0;
#X connect 1 0 17 0;
#X connect 1 1 14 0;
#X connect 1 2 16 0;
#X connect 2 0 3 0;
#X connect 3 0 4 0;
#X connect 8 0 5 0;
#X connect 9 0 8 0;
#X connect 10 0 8 0;
#X connect 11 0 8 0;
#X connect 12 0 8 0;
#X connect 13 0 8 0;
#X connect 14 0 12 0;
#X connect 14 0 9 0;
#X connect 15 0 11 0;
#X connect 15 0 9 0;
#X connect 16 0 13 0;
#X connect 16 0 9 0;
