#N canvas 503 319 580 401 10;
#X obj 305 213 netreceive 3000;
#X obj 305 267 route 0 1;
#X obj 305 299 s audio_on_off;
#X obj 420 301 s volume;
#X obj 308 17 r audio_on_off;
#X obj 308 49 tgl 15 0 empty empty empty 17 7 0 10 -262144 -1 -1 1
1;
#X msg 308 79 \; pd dsp \$1 \;;
#X obj 52 17 phasor~ 440;
#X obj 53 213 *~;
#X obj 106 61 r volume;
#X obj 106 93 / 100;
#X obj 106 125 pack 0 5;
#X obj 106 157 line~;
#X obj 52 267 dac~;
#X text 303 142 Receive message from Python and route them to the proper
receive objects in the patch ....;
#X floatatom 420 256 5 0 0 0 - - -;
#X obj 205 269 print tcp;
#X connect 0 0 1 0;
#X connect 0 0 16 0;
#X connect 0 1 15 0;
#X connect 1 0 2 0;
#X connect 1 1 3 0;
#X connect 4 0 5 0;
#X connect 5 0 6 0;
#X connect 7 0 8 0;
#X connect 8 0 13 0;
#X connect 9 0 10 0;
#X connect 10 0 11 0;
#X connect 11 0 12 0;
#X connect 12 0 8 1;
