#N canvas 0 96 1366 639 10;
#X obj 481 137 netreceive 3000;
#X msg 250 176 \; pd dsp \$1 \;;
#X text 480 98 Receive message from Python and route them to the proper
receive objects in the patch ....;
#X obj 481 272 s audio_on;
#X obj 561 272 s audio_off;
#X obj 481 229 route dspOn dspOff;
#X msg 508 174 dspOn;
#X msg 560 174 dspOff;
#X obj 250 114 r audio_on;
#X obj 328 114 r audio_off;
#X obj 655 274 s play;
#X msg 620 173 play;
#X obj 104 39 r play;
#X obj 97 171 dac~;
#X obj 480 422 netsend 3001;
#X msg 480 350 connect localhost 3001;
#X msg 493 385 disconnect;
#X msg 250 145 1;
#X msg 328 144 0;
#X text 478 308 Transmit TCP packages on port 3001 and listen with
pdreceive command ....;
#X obj 480 451 print Message Send;
#X text 247 75 Turn ON / OFF DSP from python using dspOn and dspOff
commands;
#X obj 437 175 print;
#N canvas 210 211 799 523 sounding 0;
#X obj 86 152 readsf~;
#X msg 236 109 start;
#X msg 138 232 open ./wav/motorr.wav;
#X msg 222 313 open ./wav/thegridge.wav;
#X obj 86 77 bng 15 250 50 0 empty empty empty 17 7 0 10 -262144 -1
-1;
#X obj 138 265 readsf~;
#X msg 298 233 start;
#X msg 405 313 start;
#X obj 222 354 readsf~;
#X msg 86 109 open ./wav/moga.wav;
#X obj 87 232 *~ 10;
#X obj 221 383 *~ 10;
#X msg 461 313 stop;
#X obj 86 37 inlet;
#X obj 87 465 outlet~;
#X connect 0 0 10 0;
#X connect 0 1 2 0;
#X connect 0 1 6 0;
#X connect 1 0 0 0;
#X connect 2 0 5 0;
#X connect 3 0 8 0;
#X connect 4 0 9 0;
#X connect 4 0 1 0;
#X connect 5 0 14 0;
#X connect 5 1 3 0;
#X connect 5 1 7 0;
#X connect 6 0 5 0;
#X connect 7 0 8 0;
#X connect 8 0 11 0;
#X connect 9 0 0 0;
#X connect 10 0 14 0;
#X connect 11 0 14 0;
#X connect 12 0 8 0;
#X connect 13 0 4 0;
#X restore 96 114 pd sounding;
#X obj 168 262 soundfiler array;
#X msg 190 215 read wav/motorr.wav array;
#N canvas 1 141 450 300 (subpatch) 0;
#X array array 260000 float 2;
#X coords 0 1 260000 -1 200 140 1 0 0;
#X restore 48 299 graph;
#X obj 179 237 print toArray;
#X obj 347 488 tabread~ array;
#X obj 347 527 *~ 0.5;
#X obj 348 571 dac~;
#X obj 348 449 line~;
#X connect 0 0 5 0;
#X connect 0 0 22 0;
#X connect 5 0 3 0;
#X connect 5 1 4 0;
#X connect 5 2 10 0;
#X connect 6 0 5 0;
#X connect 7 0 5 0;
#X connect 8 0 17 0;
#X connect 9 0 18 0;
#X connect 11 0 5 0;
#X connect 12 0 24 0;
#X connect 12 0 27 0;
#X connect 12 0 31 0;
#X connect 14 0 20 0;
#X connect 15 0 14 0;
#X connect 16 0 14 0;
#X connect 17 0 1 0;
#X connect 18 0 1 0;
#X connect 23 0 13 0;
#X connect 23 0 13 1;
#X connect 28 0 29 0;
#X connect 29 0 30 0;
#X connect 29 0 30 1;
#X connect 31 0 28 0;
