#N canvas 0 96 1366 639 10;
#N canvas 1 96 450 300 (subpatch) 0;
#X array array1 260000 float 0;
#X coords 0 1 259999 -1 200 140 1;
#X restore 378 98 graph;
#X obj 178 37 loadbang;
#X obj 178 117 soundfiler array1;
#X obj 176 393 dac~;
#X obj 175 278 line~;
#X msg 165 199 0 \, 250000 5669;
#X msg 155 176 250000 \, 0 5669;
#X msg 175 221 0 \, 250000 2339;
#X obj 176 314 tabread4~ array1;
#X obj 176 349 *~ 0.8;
#X obj 169 679 dac~;
#X obj 169 600 tabread4~ array1;
#X obj 169 635 *~ 0.8;
#X obj 170 502 phasor~;
#X obj 170 540 *~;
#X obj 169 565 +~;
#X obj 208 541 *~ 100;
#X obj 207 565 *~ 100;
#X floatatom 274 543 5 0 0 0 - - -;
#X floatatom 272 566 5 0 0 0 - - -;
#X floatatom 172 469 5 0 0 0 - - -;
#X text 378 249 Miller Puke's lecture 7 - video;
#X obj 395 442 print;
#X obj 395 402 pack list;
#X obj 102 111 print;
#X msg 179 79 read wav/motorr.wav array1;
#X obj 651 154 s temp;
#X obj 281 31 r temp;
#X connect 4 0 8 0;
#X connect 5 0 4 0;
#X connect 6 0 4 0;
#X connect 7 0 4 0;
#X connect 8 0 9 0;
#X connect 9 0 3 0;
#X connect 9 0 3 1;
#X connect 11 0 12 0;
#X connect 12 0 10 0;
#X connect 12 0 10 1;
#X connect 13 0 14 0;
#X connect 14 0 15 0;
#X connect 15 0 11 0;
#X connect 16 0 14 1;
#X connect 17 0 15 1;
#X connect 18 0 16 0;
#X connect 19 0 17 0;
#X connect 20 0 13 0;
#X connect 23 0 22 0;
#X connect 25 0 2 0;
#X connect 27 0 2 0;
